HIERARCHY
ROOT Hips
{
  OFFSET 3.92544 6.39728 0
  CHANNELS 6 Xposition Yposition Zposition Zrotation Xrotation Yrotation
  JOINT BN_Spine_01
  {
    OFFSET 5.06197 -0.168311 0
    CHANNELS 6 Xposition Yposition Zposition Zrotation Xrotation Yrotation
    JOINT BN_Spine_02
    {
      OFFSET 14.8952 0 0
      CHANNELS 6 Xposition Yposition Zposition Zrotation Xrotation Yrotation
      JOINT BN_Spine_03
      {
        OFFSET 14.3786 0 0
        CHANNELS 6 Xposition Yposition Zposition Zrotation Xrotation Yrotation
        JOINT BN__Neck_01
        {
          OFFSET 15.3325 0 0
          CHANNELS 6 Xposition Yposition Zposition Zrotation Xrotation Yrotation
          JOINT BN__Neck_02
          {
            OFFSET 11.0839 0 0
            CHANNELS 6 Xposition Yposition Zposition Zrotation Xrotation Yrotation
            JOINT BN__Neck_R_01
            {
              OFFSET 3.85383 1.1973 3.491
              CHANNELS 6 Xposition Yposition Zposition Zrotation Xrotation Yrotation
              End Site
              {
                OFFSET 0 0 0
              }
            }
            JOINT BN__Neck_L_01
            {
              OFFSET 3.85383 1.1973 -3.49098
              CHANNELS 6 Xposition Yposition Zposition Zrotation Xrotation Yrotation
              End Site
              {
                OFFSET 0 0 0
              }
            }
            JOINT BN_Head_01
            {
              OFFSET 9.67523 0 0
              CHANNELS 6 Xposition Yposition Zposition Zrotation Xrotation Yrotation
              JOINT BN_Mouth_01
              {
                OFFSET 1.08197 -0.588672 0
                CHANNELS 6 Xposition Yposition Zposition Zrotation Xrotation Yrotation
                JOINT BN_Tongue_01
                {
                  OFFSET 2.17792 0.065941 0
                  CHANNELS 6 Xposition Yposition Zposition Zrotation Xrotation Yrotation
                  JOINT BN_Tongue_02
                  {
                    OFFSET 3.80658 -0.000201226 0
                    CHANNELS 6 Xposition Yposition Zposition Zrotation Xrotation Yrotation
                    End Site
                    {
                      OFFSET 0 0 0
                    }
                  }
                }
              }
            }
          }
        }
      }
    }
  }
  JOINT BN_Tail_01
  {
    OFFSET 4.67587 -0.164094 0
    CHANNELS 6 Xposition Yposition Zposition Zrotation Xrotation Yrotation
    JOINT BN_Tail_02
    {
      OFFSET 13.1147 2.52724e-005 0
      CHANNELS 6 Xposition Yposition Zposition Zrotation Xrotation Yrotation
      JOINT BN_Tail_03
      {
        OFFSET 13.4995 9.10759e-005 0
        CHANNELS 6 Xposition Yposition Zposition Zrotation Xrotation Yrotation
        JOINT BN_Tail_04
        {
          OFFSET 13.2851 0 0
          CHANNELS 6 Xposition Yposition Zposition Zrotation Xrotation Yrotation
          JOINT BN_Tail_05
          {
            OFFSET 14.6528 0.000106812 0
            CHANNELS 6 Xposition Yposition Zposition Zrotation Xrotation Yrotation
            JOINT BN_Tail_06
            {
              OFFSET 13.1048 0 0
              CHANNELS 6 Xposition Yposition Zposition Zrotation Xrotation Yrotation
              JOINT BN_Tail_07
              {
                OFFSET 11.869 0.000113964 0
                CHANNELS 6 Xposition Yposition Zposition Zrotation Xrotation Yrotation
                End Site
                {
                  OFFSET 0 0 0
                }
              }
            }
          }
        }
      }
    }
  }
}
MOTION
Frames:	11
Frame Time:	0.0333333
-15.2134 3.97237 -4.42188e-013 5.34879 0.512523 11.9002 5.06197 -0.168311 7.27551e-012 -8.98305 -6.90901 14.2684 14.8952 2.38419e-007 -9.53674e-007 29.2227 2.80998 -89.1426 14.3786 1.05471e-014 5.32907e-015 86.1831 38.678 -26.4794 15.3325 -1.42109e-014 -9.53674e-007 26.3103 16.4286 30.9656 11.0839 0 -7.10543e-015 -5.89199 24.46 29.2693 2.69134 3.27614 -1.97793 -90.2995 -4.04462 -73.0613 2.02193 2.39604 2.74767 91.0471 -5.59347 99.2325 9.67523 -5.32908e-015 0 -12.1764 2.45407 -1.27554 1.08197 -0.58867 1.15792e-007 -0.514131 0.000849664 -1.74866 2.28997 0.122723 -5.34603e-008 5.34358 0.0985103 -5.84673 6.65371 0.000375424 2.89032e-008 70.502 0.00144585 -43.7336 4.67587 -0.164094 7.27596e-012 178.326 0.671488 -5.99354 13.1147 1.77636e-015 1.19209e-007 -5.48403 -0.80541 26.9097 13.4995 2.38419e-007 -2.38419e-007 5.87179 15.518 -8.06806 13.2851 1.19209e-007 -5.72205e-006 1.02907 -8.23794 -20.7738 14.6528 4.20108e-013 -3.8147e-006 1.66041 -10.3684 -3.42152 13.1048 -1.19209e-007 7.10543e-015 1.1137 8.18491 39.5479 11.869 2.38419e-007 -7.6294e-006 -4.07769 -4.28844 54.9896 
-15.2095 3.97237 -2.34845e-012 5.34771 0.522799 11.8699 5.06197 -0.168311 7.27596e-012 -9.80252 -4.06349 14.4259 14.8952 2.38419e-007 -9.53674e-007 34.1296 6.37813 -86.9063 14.3786 1.4655e-014 1.06581e-014 88.8505 37.9049 -30.6301 15.3325 -1.42109e-014 -9.53674e-007 20.3249 19.3909 33.8734 11.0839 5.32908e-015 3.55271e-015 -8.77547 23.6332 35.5366 2.67387 3.35474 -2.23397 -90.2996 -4.04455 -73.0613 1.99557 2.43895 3.01131 91.0471 -5.59346 99.2327 9.67523 -1.33227e-014 -1.42109e-014 -13.5342 3.06116 0.352765 1.08197 -0.58867 1.13909e-007 -0.451189 0.00104638 -2.04246 2.29006 0.122748 -5.28847e-008 5.29411 0.131918 -6.24077 6.65371 0.000286623 2.89172e-008 70.5032 0.00135935 -46.4558 4.67587 -0.164094 7.27596e-012 178.203 0.553682 -7.44163 13.1147 1.24345e-014 1.19209e-007 -5.13779 -0.827657 29.0144 13.4995 2.38419e-007 -2.38419e-007 6.40462 15.4663 -7.16903 13.2851 1.19209e-007 -5.72205e-006 -0.125912 -8.20246 -21.5084 14.6528 4.20997e-013 -3.8147e-006 0.388082 -10.1374 -6.91796 13.1048 -1.19209e-007 0 1.89637 8.14094 38.2527 11.869 2.38419e-007 -7.6294e-006 -2.17605 -3.47494 50.2815 
-15.2056 3.97237 -2.06611e-012 5.34372 0.537311 11.8364 5.06197 -0.168311 7.2764e-012 -10.6099 -1.19803 14.6539 14.8952 2.38419e-007 -9.53674e-007 39.1312 9.22007 -83.6828 14.3786 1.28786e-014 3.55271e-015 91.1897 36.9914 -34.3497 15.3325 -1.77636e-015 -9.53674e-007 15.7919 21.1542 35.1867 11.0839 5.32908e-015 1.77636e-015 -9.91005 23.1921 37.9889 2.65474 3.44007 -2.51326 -90.2995 -4.04466 -73.0614 1.96676 2.48536 3.29859 91.0471 -5.59346 99.2327 9.67524 -1.24345e-014 0 -14.8832 3.52554 2.05995 1.08197 -0.58867 1.03586e-007 -0.408953 0.00126204 -2.31405 2.29014 0.122776 -5.04784e-008 5.26964 0.176393 -6.53551 6.65371 0.000199309 2.89341e-008 70.5017 0.0013482 -48.5551 4.67587 -0.164094 7.2764e-012 178.098 0.442659 -8.82765 13.1147 4.44089e-015 1.19209e-007 -4.84995 -0.844895 31.0091 13.4995 2.38419e-007 -2.38419e-007 6.78155 15.4291 -6.2362 13.2851 1.19209e-007 -5.72205e-006 -1.17846 -8.1741 -22.0475 14.6528 4.25437e-013 -3.8147e-006 -0.697552 -9.91035 -10.2266 13.1048 -1.19209e-007 -1.77636e-014 2.58564 8.15779 36.743 11.869 2.38419e-007 -7.6294e-006 1.24362 -0.785922 43.0398 
-15.2018 3.97237 4.74713e-013 5.34288 0.545321 11.7917 5.06197 -0.168311 7.27596e-012 -11.3812 1.54218 14.9605 14.8952 2.38419e-007 -9.53674e-007 43.8723 11.1948 -79.849 14.3786 1.55431e-014 7.9936e-015 93.0587 36.0797 -37.4003 15.3325 -5.32908e-015 -9.53674e-007 12.0273 21.9067 34.9713 11.0839 3.55272e-015 3.55271e-015 -8.72276 20.47 35.182 2.63467 3.52744 -2.80046 -90.2995 -4.0446 -73.0614 1.93674 2.53271 3.59385 91.0471 -5.59346 99.2327 9.67524 -7.10544e-015 0 -16.0897 3.85195 3.65482 1.08197 -0.58867 7.31773e-008 -0.381256 0.00146556 -2.54264 2.29022 0.122804 -4.3779e-008 5.26645 0.227372 -6.71493 6.65371 0.000111262 2.89506e-008 70.5057 0.000350684 -49.8803 4.67587 -0.164094 7.27685e-012 178.025 0.345675 -10.0634 13.1147 0 1.19209e-007 -4.64663 -0.86477 32.7992 13.4995 2.38419e-007 -2.38419e-007 6.93912 15.4087 -5.30711 13.2851 1.19209e-007 -5.72205e-006 -2.05593 -8.1584 -22.3775 14.6528 4.2677e-013 -3.8147e-006 -1.53215 -9.71781 -13.2268 13.1048 -1.19209e-007 -1.42109e-014 3.12924 8.23468 35.0427 11.869 2.38419e-007 -7.6294e-006 5.05149 2.54945 36.4652 
-15.1979 3.97237 7.10404e-013 5.33915 0.557578 11.7438 5.06197 -0.168311 7.27551e-012 -12.1391 4.16381 15.3677 14.8952 2.38419e-007 -9.53674e-007 48.3248 12.4197 -75.606 14.3786 5.32907e-015 -2.66453e-015 94.4639 35.2753 -39.7533 15.3325 -1.77636e-014 -9.53674e-007 8.14357 22.2854 33.9407 11.0839 5.32908e-015 0 -7.01747 13.7251 29.6183 2.61441 3.61567 -3.09051 -90.2995 -4.04448 -73.0613 1.90643 2.58054 3.89204 91.0471 -5.59347 99.2327 9.67524 -6.21726e-015 -3.55271e-015 -17.085 4.06919 5.0358 1.08197 -0.58867 2.40212e-008 -0.363769 0.00164311 -2.72104 2.29031 0.12283 -3.3038e-008 5.2703 0.287411 -6.77733 6.65371 2.2367e-005 2.89576e-008 70.5047 0.000948732 -50.3484 4.67587 -0.164094 7.27507e-012 177.991 0.264327 -11.1339 13.1147 3.55271e-015 1.19209e-007 -4.54229 -0.882994 34.4032 13.4995 2.38419e-007 -2.38419e-007 6.83957 15.4131 -4.37752 13.2851 1.19209e-007 -5.72205e-006 -2.74549 -8.15062 -22.4899 14.6528 4.21441e-013 -3.8147e-006 -2.10974 -9.56698 -15.9617 13.1048 -1.19209e-007 -7.10543e-015 3.5226 8.39396 33.0672 11.869 2.38419e-007 -7.6294e-006 7.04218 4.28823 33.0532 
-15.194 3.97237 2.13545e-012 5.33797 0.569244 11.6879 5.06197 -0.168311 7.27596e-012 -12.8791 6.58763 15.9004 14.8952 2.38419e-007 -9.53674e-007 52.3084 13.0437 -71.2033 14.3786 1.06581e-014 8.88178e-016 95.3524 34.7022 -41.2814 15.3325 -1.42109e-014 -9.53674e-007 5.06356 22.8234 32.4407 11.0839 3.55272e-015 7.10543e-015 -6.37178 6.17303 24.8571 2.59395 3.70472 -3.38326 -90.2995 -4.04453 -73.0613 1.87582 2.62881 4.19302 91.0471 -5.59347 99.2327 9.67524 -8.8818e-015 0 -17.7609 4.18689 6.04108 1.08197 -0.58867 -2.77109e-008 -0.356777 0.00184896 -2.84041 2.29039 0.122855 -2.17765e-008 5.95044 0.417362 -6.17975 6.65371 -6.49271e-005 2.89497e-008 74.9168 3.87409 -43.5234 4.67587 -0.164094 7.27596e-012 177.985 0.19712 -12.0772 13.1147 2.66454e-015 1.19209e-007 -4.5056 -0.902769 35.7677 13.4995 2.38419e-007 -2.38419e-007 6.56578 15.4539 -3.36267 13.2851 1.19209e-007 -5.72205e-006 -3.22228 -8.1464 -22.241 14.6528 4.25437e-013 -3.8147e-006 -2.03155 -9.51867 -18.3914 13.1048 -1.19209e-007 -7.10543e-015 3.13265 8.6474 30.7421 11.869 2.38419e-007 -7.6294e-006 6.48104 3.68407 32.2565 
-15.1902 3.97237 -2.83885e-013 5.33694 0.579252 11.6234 5.06197 -0.168311 7.27685e-012 -13.5748 8.67882 16.5481 14.8952 2.38419e-007 -9.53674e-007 55.5243 13.3148 -66.9631 14.3786 5.32907e-015 -1.77636e-015 95.6822 34.4724 -41.8539 15.3325 -1.06582e-014 -9.53674e-007 3.74357 24.0392 30.8853 11.0839 7.10544e-015 7.10543e-015 -5.81756 2.59237 22.9366 2.57433 3.7878 -3.65683 -90.2995 -4.04454 -73.0613 1.84672 2.67375 4.47475 91.0471 -5.59346 99.2327 9.67524 -7.10544e-015 1.06581e-014 -18.009 4.2212 6.51084 1.08197 -0.58867 -5.90952e-008 -0.356775 0.00197829 -2.88196 2.29047 0.12288 -1.49818e-008 7.65863 0.645541 -4.66059 6.65371 -0.000152882 2.89352e-008 81.5928 16.9669 -26.9797 4.67587 -0.164094 7.2764e-012 177.985 0.140214 -12.9458 13.1147 6.21725e-015 1.19209e-007 -4.48917 -0.924622 36.8538 13.4995 2.38419e-007 -2.38419e-007 6.24776 15.5295 -2.22776 13.2851 1.19209e-007 -5.72205e-006 -3.52199 -8.13409 -21.6164 14.6528 4.30767e-013 -3.8147e-006 -1.16258 -9.58577 -20.4513 13.1048 -1.19209e-007 -1.06581e-014 1.66051 8.96964 28.1412 11.869 2.38419e-007 -7.6294e-006 4.92573 2.05908 31.7257 
-15.1849 3.97237 1.2342e-012 5.33546 0.594324 11.558 5.06197 -0.168311 7.27551e-012 -14.1316 10.4451 17.5943 14.8952 2.38419e-007 -9.53674e-007 57.3143 13.5766 -63.4101 14.3786 1.33227e-014 3.55271e-015 95.6737 34.4703 -41.7791 15.3325 -1.42109e-014 -9.53674e-007 3.87069 26.5192 29.0906 11.0839 5.32908e-015 0 -4.71252 5.37889 23.1536 2.55693 3.86625 -3.91298 -90.2995 -4.04451 -73.0613 1.82044 2.7165 4.73827 91.0471 -5.59347 99.2327 9.67524 -1.15463e-014 7.10543e-015 -16.4792 0.555544 6.61777 1.08197 -0.58867 -6.31993e-008 -0.979444 0.00128719 -2.60568 2.29056 0.122906 -1.4259e-008 10.0729 0.942715 -2.4917 6.65371 -0.000239269 2.89315e-008 76.2124 38.266 -0.595786 4.67587 -0.164094 7.2764e-012 177.99 0.0903106 -13.7694 13.1147 2.66454e-015 1.19209e-007 -4.49111 -0.942733 37.7102 13.4995 2.38419e-007 -2.38419e-007 5.88534 15.6354 -0.964262 13.2851 1.19209e-007 -5.72205e-006 -3.68124 -8.1138 -20.7217 14.6528 4.29878e-013 -3.8147e-006 0.269515 -9.74032 -22.2036 13.1048 -1.19209e-007 0 -0.538162 9.35154 25.2439 11.869 2.38419e-007 -7.6294e-006 2.65602 -0.285055 31.409 
-15.1795 3.97237 2.37274e-013 5.33211 0.6032 11.4847 5.06197 -0.168311 7.27685e-012 -14.5294 11.9465 19.1318 14.8952 2.38419e-007 -9.53674e-007 57.3248 14.1178 -60.9396 14.3786 7.99361e-015 2.66453e-015 95.5319 34.5382 -41.3874 15.3325 -8.88179e-015 -9.53674e-007 4.61285 30.0673 26.871 11.0839 0 -1.77636e-015 -3.8845 11.5505 23.7998 2.54125 3.93642 -4.14267 -90.2995 -4.04452 -73.0614 1.79679 2.75467 4.97448 91.0471 -5.59347 99.2327 9.67524 -8.8818e-015 7.10543e-015 -12.9532 -6.9413 6.72873 1.08197 -0.58867 -5.32689e-008 -2.55582 0.00039148 -1.9047 2.29064 0.122934 -1.62522e-008 12.84 1.27299 0.0191319 6.65372 -0.000328996 2.89417e-008 38.3676 49.8534 48.273 4.67587 -0.164094 7.2764e-012 177.999 0.045969 -14.5503 13.1147 0 1.19209e-007 -4.50039 -0.958472 38.3621 13.4995 2.38419e-007 -2.38419e-007 5.4872 15.7547 0.402396 13.2851 1.19209e-007 -5.72205e-006 -3.73974 -8.08429 -19.6855 14.6528 4.36762e-013 -3.8147e-006 2.01034 -9.94257 -23.6473 13.1048 -1.19209e-007 -3.55271e-015 -3.08307 9.75726 22.0879 11.869 2.38419e-007 -7.6294e-006 0.0109304 -3.01263 31.2703 
-15.1742 3.97237 -5.10289e-013 5.3308 0.616787 11.4101 5.06197 -0.168311 7.27507e-012 -14.8785 13.2566 20.8489 14.8952 2.38419e-007 -9.53674e-007 56.0759 14.9224 -59.2511 14.3786 1.33227e-014 1.77636e-015 95.2363 34.7109 -40.6752 15.3325 -1.24345e-014 -9.53674e-007 5.95806 33.9435 24.5849 11.0839 0 3.55271e-015 -3.39769 17.5778 24.6422 2.52821 3.99423 -4.33206 -90.2995 -4.04452 -73.0614 1.77719 2.78608 5.16933 91.0471 -5.59346 99.2326 9.67524 -1.11023e-014 -3.55271e-015 -9.26451 -12.7945 6.86647 1.08197 -0.58867 -3.6952e-008 -4.55816 0.001892 -1.01493 2.29072 0.122959 -1.87066e-008 15.5353 1.58961 2.49082 6.65372 -0.000417004 2.89572e-008 0.704184 32.2776 85.3341 4.67587 -0.164094 7.27463e-012 178.009 0.00689016 -15.2708 13.1147 0 1.19209e-007 -4.51635 -0.972296 38.817 13.4995 2.38419e-007 -2.38419e-007 5.071 15.8779 1.8126 13.2851 1.19209e-007 -5.72205e-006 -3.72461 -8.05488 -18.6725 14.6528 4.36984e-013 -3.8147e-006 3.76411 -10.1535 -24.7466 13.1048 -1.19209e-007 3.55271e-015 -5.52315 10.1449 18.829 11.869 2.38419e-007 -7.6294e-006 -2.59559 -5.69583 31.2325 
-15.1689 3.97237 -1.13414e-012 5.32707 0.629822 11.3324 5.06197 -0.168311 7.2764e-012 -15.3021 14.5498 22.5477 14.8952 2.38419e-007 -9.53674e-007 54.0574 15.8383 -57.9327 14.3786 1.68754e-014 3.55271e-015 94.7411 35.013 -39.6175 15.3325 -1.59872e-014 -9.53674e-007 7.80883 37.599 22.4558 11.0839 3.55272e-015 8.88178e-015 -3.10457 23.804 24.8452 2.51801 4.03896 -4.47867 -90.2995 -4.04458 -73.0613 1.76191 2.81038 5.32027 91.0471 -5.59347 99.2327 9.67524 -8.43771e-015 0 -6.02319 -15.2108 5.00929 1.08197 -0.58867 -1.69616e-008 -6.58176 0.00313043 -0.115413 2.29072 0.122959 -2.04861e-008 17.8748 1.85685 4.6628 6.65372 -0.000503392 2.89784e-008 -17.4051 7.16992 91.5245 4.67587 -0.164094 7.27463e-012 178.02 -0.0297006 -15.9563 13.1147 8.88178e-015 1.19209e-007 -4.53592 -0.984579 39.1175 13.4995 2.38419e-007 -2.38419e-007 4.6347 15.9996 3.28282 13.2851 1.19209e-007 -5.72205e-006 -3.67772 -8.02776 -17.78 14.6528 4.34097e-013 -3.8147e-006 5.33301 -10.3473 -25.5382 13.1048 -1.19209e-007 0 -7.54661 10.4903 15.4173 11.869 2.3842e-007 -7.6294e-006 -4.89969 -8.07236 31.179 
